<svg width="26" height="26" viewBox="0 0 26 26" fill="none" xmlns="http://www.w3.org/2000/svg">
<path d="M6.4202 15.4656L5.59745 18.537L2.59033 18.6007C1.69164 16.9338 1.18188 15.0267 1.18188 13C1.18188 11.0403 1.65849 9.19223 2.50331 7.56497H2.50395L5.18114 8.0558L6.35391 10.7169C6.10845 11.4325 5.97467 12.2007 5.97467 13C5.97476 13.8676 6.1319 14.6988 6.4202 15.4656Z" fill="#FBBB00"/>
<path d="M24.6119 10.7922C24.7476 11.5071 24.8184 12.2454 24.8184 13C24.8184 13.8461 24.7294 14.6714 24.5599 15.4675C23.9846 18.1766 22.4814 20.5422 20.3989 22.2162L20.3983 22.2156L17.0262 22.0435L16.549 19.0643C17.9308 18.2539 19.0107 16.9857 19.5795 15.4675H13.26V10.7922H19.6717H24.6119Z" fill="#518EF8"/>
<path d="M20.3981 22.2156L20.3988 22.2163C18.3735 23.8442 15.8007 24.8182 13.0001 24.8182C8.49942 24.8182 4.58645 22.3026 2.59033 18.6007L6.42021 15.4656C7.41824 18.1293 9.98773 20.0254 13.0001 20.0254C14.2949 20.0254 15.5079 19.6754 16.5488 19.0643L20.3981 22.2156Z" fill="#28B446"/>
<path d="M20.5437 3.90259L16.7151 7.03699C15.6379 6.36364 14.3644 5.97465 13.0002 5.97465C9.91965 5.97465 7.30211 7.95775 6.35407 10.7169L2.50406 7.56493H2.50342C4.47031 3.77273 8.43264 1.18182 13.0002 1.18182C15.8677 1.18182 18.4969 2.20327 20.5437 3.90259Z" fill="#F14336"/>
</svg>
